<svg width="800" height="600" viewBox="0 0 800 600" xmlns="http://www.w3.org/2000/svg">
  <defs>
    <linearGradient id="clinicBg" x1="0%" y1="0%" x2="100%" y2="100%">
      <stop offset="0%" style="stop-color:#e0f2fe;stop-opacity:1" />
      <stop offset="100%" style="stop-color:#bae6fd;stop-opacity:1" />
    </linearGradient>
  </defs>
  
  <!-- Background -->
  <rect width="800" height="600" fill="url(#clinicBg)"/>
  
  <!-- Building outline -->
  <rect x="200" y="150" width="400" height="400" fill="#ffffff" stroke="#0891b2" stroke-width="4"/>
  
  <!-- Windows -->
  <rect x="240" y="200" width="80" height="100" rx="5" fill="#0891b2" opacity="0.2"/>
  <rect x="360" y="200" width="80" height="100" rx="5" fill="#0891b2" opacity="0.2"/>
  <rect x="480" y="200" width="80" height="100" rx="5" fill="#0891b2" opacity="0.2"/>
  
  <rect x="240" y="340" width="80" height="100" rx="5" fill="#0891b2" opacity="0.2"/>
  <rect x="360" y="340" width="80" height="100" rx="5" fill="#0891b2" opacity="0.2"/>
  <rect x="480" y="340" width="80" height="100" rx="5" fill="#0891b2" opacity="0.2"/>
  
  <!-- Door -->
  <rect x="350" y="450" width="100" height="100" rx="5" fill="#0891b2"/>
  <circle cx="420" cy="500" r="5" fill="#ffffff"/>
  
  <!-- Cross symbol -->
  <rect x="385" y="220" width="30" height="80" rx="5" fill="#0891b2"/>
  <rect x="370" y="235" width="60" height="30" rx="5" fill="#0891b2"/>
  
  <!-- Text -->
  <text x="400" y="100" font-family="Arial, sans-serif" font-size="36" font-weight="bold" fill="#0891b2" text-anchor="middle">
    Elite Dental Clinic
  </text>
  <text x="400" y="130" font-family="Arial, sans-serif" font-size="20" fill="#0891b2" opacity="0.8" text-anchor="middle">
    Modern Facilities • Expert Care
  </text>
</svg>
