<svg width="400" height="400" viewBox="0 0 400 400" xmlns="http://www.w3.org/2000/svg">
  <defs>
    <linearGradient id="drEmilyBg" x1="0%" y1="0%" x2="100%" y2="100%">
      <stop offset="0%" style="stop-color:#fdf4ff;stop-opacity:1" />
      <stop offset="100%" style="stop-color:#fae8ff;stop-opacity:1" />
    </linearGradient>
  </defs>
  
  <!-- Background -->
  <rect width="400" height="400" fill="url(#drEmilyBg)"/>
  
  <!-- Doctor silhouette -->
  <circle cx="200" cy="140" r="60" fill="#a855f7"/>
  
  <!-- Lab coat -->
  <path d="M140 200 L140 380 L260 380 L260 200 Q250 180 200 180 Q150 180 140 200" fill="#ffffff" stroke="#a855f7" stroke-width="3"/>
  
  <!-- Stethoscope -->
  <circle cx="160" cy="240" r="12" fill="none" stroke="#a855f7" stroke-width="3"/>
  <path d="M160 252 Q160 280 180 290" stroke="#a855f7" stroke-width="3" fill="none"/>
  
  <!-- Heart symbol (pediatric) -->
  <path d="M210 260 Q210 250 220 250 Q230 250 230 260 Q230 275 210 285 Q190 275 190 260 Q190 250 200 250 Q210 250 210 260" fill="#a855f7" opacity="0.3"/>
  
  <!-- Name tag -->
  <rect x="150" y="300" width="100" height="40" rx="5" fill="#a855f7" opacity="0.2"/>
  <text x="200" y="318" font-family="Arial, sans-serif" font-size="14" font-weight="bold" fill="#a855f7" text-anchor="middle">Dr. Emily</text>
  <text x="200" y="333" font-family="Arial, sans-serif" font-size="10" fill="#a855f7" text-anchor="middle">Pediatric Dentist</text>
</svg>
