<svg width="32" height="32" viewBox="0 0 32 32" xmlns="http://www.w3.org/2000/svg">
  <defs>
    <linearGradient id="faviconBg" x1="0%" y1="0%" x2="100%" y2="100%">
      <stop offset="0%" style="stop-color:#0d9488;stop-opacity:1" />
      <stop offset="100%" style="stop-color:#14b8a6;stop-opacity:1" />
    </linearGradient>
  </defs>
  
  <!-- Background -->
  <rect width="32" height="32" rx="6" fill="url(#faviconBg)"/>
  
  <!-- Tooth icon -->
  <path d="M16 6C13.5 6 12 7.5 11.5 9C11 10.5 9.5 11.5 8.5 13C7.5 14.5 7.5 16.5 8.5 18C9.5 19.5 10.5 22 11.5 24C12.5 26 13.5 25 14 23C14.5 21 15.5 20 16 20C16.5 20 17.5 21 18 23C18.5 25 19.5 26 20.5 24C21.5 22 22.5 19.5 23.5 18C24.5 16.5 24.5 14.5 23.5 13C22.5 11.5 21 10.5 20.5 9C20 7.5 18.5 6 16 6Z" 
        fill="#ffffff" opacity="0.95"/>
</svg>
